<svg version="1" xmlns="http://www.w3.org/2000/svg" width="266.667" height="266.667" viewBox="0 0 200.000000 200.000000"><path d="M14.3 72.4l-2.8 2.4v50l2.4 2.6 2.4 2.6H100c82.2 0 83.7 0 85.8-2 3.1-2.9 3.4-6 3-30.8l-.3-22.4-2.8-2.4-2.8-2.4H17.1l-2.8 2.4zm42.1 23.1c-.5 7.6-.4 10.5.5 10.5.6 0 1.1-.5 1.1-1 0-1.4 6-5 8.3-5 2.8 0 1.1 1.7-2.3 2.4-2.5.4-3.5 1.5-4.8 4.6-1.9 4.6-2.7 4.9-3.9 1.7-.8-2.4-.7-21.3.2-22.8 1.4-2.2 1.6-.3.9 9.6zm90-8.9c1.9 1.8 2.1 8.5.5 11.7-.6 1.2-2.3 3.5-3.8 5l-2.6 2.9 2.4 1.9c2.6 2.2 4.5 2.3 8.8.8 3-1 3.1-1 2.6-7.2-.5-7 .6-11.1 3.6-12.7 3.2-1.6 6.1 1.9 6.1 7.3 0 4.3-1.8 7.8-5.4 10.8-1.9 1.6-1.9 1.6.4 3.9 1.9 1.9 3 2.2 8.1 1.8 5.9-.4 7.9.4 3.7 1.6-5.4 1.4-13-.5-14-3.5-.3-1-1.5-1-5-.1-4.7 1.2-10.8.1-10.8-1.9 0-1.6-1.8-1-6.8 2.1-6 3.6-7.5 3.7-9 .5l-1.1-2.5-3.7 2.5c-4.3 2.9-7.9 3.2-9.3.8-.8-1.4-1.2-1.5-2.5-.4-2.7 2.2-9.6 13.2-9.6 15.2 0 1.1-.4 1.9-1 1.9s-1-2.9-1-6.8c0-3.7-.5-12.2-1.2-19-1.3-13.1-.9-15.4 2.9-16 1.5-.2 2.5.7 3.7 3.1 1.8 3.9 2.1 10.2.6 11.2-.6.4-1-1.4-1-4.7 0-5.3-1.2-7.8-3.7-7.8-.9 0-1.3 1.5-1.3 4.7 0 6.6 2.2 26.3 2.9 26.3.3-.1 2.6-2.8 5.1-6.1 11.7-15.7 19.4-18.1 20.9-6.6.7 5.3 2.3 5.6 8.4 1.7 4.8-3 4.8-3.1 4.2-7.3-.8-4.9.9-12.3 3.2-15 2-2.1 2.7-2.1 4.7-.1zm-71.8 17.1c1.1 6.4 2 7.3 5.4 6.1 1.7-.5 3-1.3 3-1.6 0-.4 1-1.8 2.1-3.2l2-2.5-.4 11.1c-.5 11.7-1.6 15.4-4.7 15.4-2.3 0-5-3.6-5-6.8 0-2.8 1.7-6.2 3.1-6.2.6 0 .6.7-.1 2-.6 1.2-1 3.5-.8 5.3.2 2.4.8 3.3 2.5 3.5 1.9.3 2.2-.3 2.7-4 1.8-15.1 1.8-15-1.8-12.3-1.1.8-3.2 1.5-4.7 1.5-2.2 0-2.9-.6-3.7-3.3-1.9-6-2.2-8.7-1.3-8.7.6 0 1.3 1.7 1.7 3.7zm-28.6-.2c3.4 1.8 4.5 4.6 3 7.5-1.7 3.2-10 5.6-10 3 0-.6 1.2-1 2.6-1 5.7 0 8.1-3.5 4.7-7.2-2.2-2.4-5.6-2.3-7.9.3-2.3 2.6-9.4 7.9-10.6 7.9-1.7 0-.7-1.7 1.5-2.7 1.3-.6 4.5-2.9 7.1-5.2 5.3-4.6 5.6-4.7 9.6-2.6zm18.2 6.2c.3 2.5.7 2.8 3.6 2.5 1.7-.1 3.2.2 3.2.8 0 .5-.4 1-.9 1s-1.6.3-2.4.6c-2 .7-5.7-3-5.7-5.6 0-3 1.8-2.4 2.2.7z"/><path d="M141.4 90.5c-.7 1.9-1.4 5.8-1.4 8.7l.1 5.3 2.8-3.4c3.3-3.8 4.7-9.1 3.1-12.1-1.6-2.9-2.9-2.5-4.6 1.5zM157 91.9c-1.2 2.3-1.4 14.1-.2 14.1 1.6 0 5.2-4.6 5.8-7.5 1.2-6.1-3.1-11.2-5.6-6.6zM114.6 105.1c-3.5 4.1-3.5 6.9.2 6.9 4.2-.1 9.8-5.4 8.6-8.4-1.1-2.8-5.9-2-8.8 1.5z"/></svg>